<svg xmlns="http://www.w3.org/2000/svg" width="100%" height="100%"
  xmlns:xlink="http://www.w3.org/1999/xlink" viewBox="0 0  750 980" preserveAspectRatio="xMinYMin meet">
  <rect id="svgEditorBackground" x="0" y="0" width="750" height="980" style="fill: none; stroke: none;"/>
  <path d="M46.761643,830.761324l2.321,-0.663l5.638,-0.531l9.096,-0.512l13.676,-0.505l17.024,-0.502l21.506,-0.501l19.592,-0.306l23.725,0l28.011,0.23l31.608,0.383l35.511,0.612l38.572,0.918l42.476,0.995l43.088,1.071l45.537,1.071l45.078,1.071l46.455,1.071l44.083,1.148l45.384,1.225l42.016,1.071l38.725,0.765l34.669,0.459l30.843,0.383l27.093,0.153l22.73,-0.153l18.827,-0.23l16.608,-0.306l15.307,-0.612l13.47,-0.612l11.48,-0.612l9.949,-0.689l8.342,-0.765l6.888,-0.765l6.046,-0.765l5.74,-0.689l5.281,-0.689l4.898,-0.765l7.375,-1.002l5.015,-0.784l2.337,-0.379l1.62,-0.284l1.459,-0.332l0.332,-0.663" style="stroke:black;fill:none;stroke-width:12px" id="e2_freepath"/>
  <path d="M149.239013,97.502588l0,2.653l-0.398,6.5l-0.171,8.613l0.126,10.312l-0.1,13.346l-0.376,16.663l-0.306,14.465l-0.306,17.067l-0.306,20.052l-0.306,23.572l-0.23,27.628l0.306,33.827l0.612,35.894l0.918,36.276l1.071,37.731l1.225,36.889l1.301,36.276l1.454,34.363l1.454,34.899l1.531,32.832l1.531,30.996l1.531,28.547l1.684,24.95l1.684,21.506l1.225,14.618l0.995,13.087l0.612,11.556l0.536,10.255l0.459,9.414l0.383,8.648l0.383,8.189l0.383,7.73l0.383,7.424l0.383,6.811l0.383,6.276l0.306,5.587l0.306,4.898l0.23,4.362l0.23,3.827l0.132,3.917l0.08,4l0.126,3.727l0.227,2.729l0.531,1.725l0.663,2.653" style="stroke:black;fill:none;stroke-width:12px" id="e8_freepath"/>
  <path d="M148.244013,103.472588l0.995,-4.975l4.378,0l7.419,0.142l11.971,0.19l15.758,-0.151l19.558,-0.487l16.837,-0.23l20.052,-0.23l22.96,-0.23l24.797,-0.383l26.786,-0.536l28.241,-0.459l29.695,-0.536l28.853,-0.536l29.389,-0.536l26.939,-0.459l26.557,-0.383l31.552,-0.334l29.546,-0.482l24.257,-0.474l19.188,0.142l-9.617,0l6.633,-0.995" style="stroke:black;fill:none;stroke-width:12px" id="e9_freepath"/>
  <text dy="-0.5em" style="fill:black;font-family:Arial;font-size:20px" id="e11_text"/>
  <path d="M149.239013,97.502588l0,0.995l-0.398,0.199l-0.597,-0.057l-0.774,-0.032l-0.402,0.07l-0.125,0.202l-0.153,0.23l-0.077,0.153l0,0.077l0.077,0l0.077,0l0.23,0l0.306,-0.077l0.383,-0.153l0.383,-0.153l0.23,-0.153l0.48,-0.125l0.472,-0.402l0.174,-0.632l0.114,-0.54l-0.398,-0.597l-0.995,0" style="stroke:black;fill:none;stroke-width:3.76px" id="e12_freepath"/>
  <text dy="-0.5em" style="fill:black;font-family:Arial;font-size:20px" id="e14_text">
    <textPath id="e13_textPath" xlink:href="#e12_freepath"></textPath>
  </text>
  <path d="M150.233521,242.761435V306.436564" style="fill:none;stroke:black" stroke-width="0.9949238896369933" id="e18_pathV"/>
  <path d="M149.239013,240.771588l0.332,-0.995l1.658,-2.189l2.132,-2.502l2.29,-2.716l2.543,-3.176l2.679,-3.347l2.449,-2.985l2.908,-3.367l3.214,-3.827l3.52,-3.98l3.903,-4.362l4.209,-4.592l4.668,-4.898l5.128,-5.128l5.587,-5.357l5.893,-5.357l6.505,-5.663l6.811,-5.587l7.5,-5.97l7.73,-5.97l7.806,-5.816l7.883,-5.51l7.73,-5.281l7.653,-5.051l7.424,-4.745l7.347,-4.515l6.888,-4.133l6.658,-3.903l6.276,-3.674l5.74,-3.291l5.128,-2.985l4.439,-2.526l3.903,-2.219l4.411,-2.498l4.05,-2.281l3.38,-1.879l2.502,-1.592l1.194,-0.73l0.995,-0.663" style="stroke:black;fill:none;stroke-width:12px" id="e19_freepath"/>
  <path d="M587.005013,97.502588l0.663,0.332l0.133,1.26l0.057,1.677l0.253,2.037l0.161,2.291l0.111,2.428l0.153,2.143l0.077,2.449l0,2.985l0,3.214l0,3.75l0,3.98l0,4.133l0,4.745l0,4.822l0,4.975l0,5.281l0,5.357l0,5.434l0,5.281l0,5.128l0.077,4.592l0.077,4.286l0.153,3.827l0.153,3.52l0.153,3.214l0.077,2.526l0.077,2.296l0.07,2.435l0.1,1.528l0.158,1.263l0.284,1.279l0,0.995l0,0.995" style="stroke:black;fill:none;stroke-width:12px" id="e23_freepath"/>
</svg>